<?xml version="1.0" standalone="no"?>
<!DOCTYPE svg PUBLIC "-//W3C//DTD SVG 20010904//EN"
 "http://www.w3.org/TR/2001/REC-SVG-20010904/DTD/svg10.dtd">
<svg version="1.0" xmlns="http://www.w3.org/2000/svg"
 width="300.000000pt" height="300.000000pt" viewBox="0 0 300.000000 300.000000"
 preserveAspectRatio="xMidYMid meet">
<metadata>
Created by potrace 1.11, written by Peter Selinger 2001-2013
</metadata>
<g transform="translate(0.000000,300.000000) scale(0.100000,-0.100000)"
fill="#000000" stroke="none">
<path d="M1277 2785 c-80 -22 -136 -75 -177 -169 -21 -46 -34 -152 -21 -161
16 -9 39 31 45 80 9 67 50 150 90 180 18 13 54 34 81 46 97 43 290 8 350 -63
14 -16 22 -35 19 -40 -4 -6 -2 -8 3 -5 19 12 1 57 -31 82 -58 44 -105 58 -211
61 -60 1 -119 -3 -148 -11z"/>
<path d="M1403 2679 c-66 -32 -89 -101 -59 -174 16 -38 42 -55 83 -54 27 0 27
1 6 9 -60 24 -86 148 -40 191 45 43 100 47 140 12 10 -10 17 -11 17 -5 0 15
-53 42 -82 42 -13 0 -42 -9 -65 -21z"/>
<path d="M1451 2647 c-15 -40 28 -66 48 -29 5 10 6 24 1 32 -14 22 -41 20 -49
-3z"/>
<path d="M1664 2564 c4 -47 -14 -106 -39 -134 -17 -19 -18 -19 -34 9 -9 16
-28 43 -43 62 l-27 33 -12 -27 c-10 -22 -10 -32 2 -54 7 -16 15 -31 17 -35 2
-5 -10 -8 -28 -8 -18 0 -29 -4 -25 -10 8 -13 41 -13 67 1 20 11 20 11 -5 37
-17 19 -23 33 -18 46 6 16 10 14 29 -18 12 -20 23 -50 24 -66 3 -36 16 -38 53
-8 48 38 68 120 44 188 -7 20 -8 17 -5 -16z"/>
<path d="M1074 2403 c-57 -58 -73 -210 -35 -347 21 -76 98 -242 108 -232 3 2
-14 44 -37 93 -65 136 -89 241 -75 331 8 53 13 51 20 -9 12 -98 17 -124 37
-178 12 -31 36 -83 54 -116 18 -33 36 -80 40 -105 10 -64 27 -88 20 -28 -3 26
-23 86 -45 135 -63 140 -74 197 -67 346 3 70 3 127 1 127 -2 0 -11 -8 -21 -17z"/>
<path d="M1665 2308 c82 -148 90 -283 35 -608 -12 -69 -24 -131 -26 -139 -3
-9 -29 27 -62 82 -31 53 -88 142 -126 198 -66 98 -110 181 -123 231 -12 48 -7
163 9 196 9 17 13 32 9 32 -21 0 -41 -71 -42 -146 -1 -93 39 -200 142 -379
l91 -159 -7 -54 c-9 -72 -32 -147 -49 -161 -18 -15 -51 28 -88 114 -35 81 -35
81 -14 153 11 34 16 65 13 68 -4 4 -23 -6 -43 -22 -61 -49 -63 -49 -75 -37 -8
8 -8 17 1 33 17 31 4 37 -35 16 -26 -14 -36 -28 -41 -53 -4 -21 -2 -39 5 -46
8 -8 11 -8 11 1 0 18 71 8 85 -12 7 -8 15 -13 18 -9 4 3 8 -9 8 -28 1 -19 2
-47 3 -63 2 -28 2 -28 -14 -7 -8 11 -23 31 -32 43 l-18 23 9 -25 c5 -14 18
-42 29 -62 14 -24 23 -64 27 -120 8 -98 46 -298 73 -383 83 -258 194 -433 410
-653 144 -147 139 -146 102 -12 -28 99 -65 276 -154 731 -21 108 -57 250 -82
327 -8 24 -12 47 -10 50 2 4 6 30 10 57 3 28 8 68 11 90 31 223 40 469 21 560
-17 79 -62 181 -90 204 -10 8 -6 -4 9 -31z"/>
</g>
</svg>
