<?xml version="1.0" encoding="utf-8"?>
<!-- Generator: Adobe Illustrator 18.0.0, SVG Export Plug-In . SVG Version: 6.00 Build 0)  -->
<!DOCTYPE svg PUBLIC "-//W3C//DTD SVG 1.1//EN" "http://www.w3.org/Graphics/SVG/1.1/DTD/svg11.dtd">
<svg version="1.1" xmlns="http://www.w3.org/2000/svg" xmlns:xlink="http://www.w3.org/1999/xlink" x="0px" y="0px"
	 viewBox="0 0 770 1141.2" enable-background="new 0 0 770 1141.2" xml:space="preserve">
<g id="circles">
	<circle id="circle_x5F_04" fill="none" stroke="#B2CF79" stroke-width="3" stroke-miterlimit="10" cx="338.1" cy="1056.6" r="65"/>
	<circle id="circle_x5F_03" fill="none" stroke="#B2CF79" stroke-width="3" stroke-miterlimit="10" cx="218.3" cy="582.5" r="65"/>
	<circle id="circle_x5F_02" fill="none" stroke="#B2CF79" stroke-width="3" stroke-miterlimit="10" cx="703.1" cy="421.5" r="65"/>
	<circle id="circle_x5F_01" fill="none" stroke="#B2CF79" stroke-width="3" stroke-miterlimit="10" cx="66.8" cy="66.5" r="65"/>
</g>
<g id="lines">
	<g id="line_x5F_03_x5F_to_x5F_04">
		<g>
			<path fill="none" stroke="#B2CF79" stroke-width="3" stroke-miterlimit="10" d="M180.4,635.3c-0.5,0.5-0.9,1-1.4,1.4"/>
			<path fill="none" stroke="#B2CF79" stroke-width="3" stroke-miterlimit="10" stroke-dasharray="4.0076,4.0076" d="M176,639.4
				C122.3,684.3,44.8,574,15.8,666.5c-62.2,198.4,252.4,82.2,161.8,337c-24,67.6,67.6,63.2,88,61.4"/>
			<path fill="none" stroke="#B2CF79" stroke-width="3" stroke-miterlimit="10" d="M267.6,1064.7c1.3-0.1,2-0.2,2-0.2"/>
		</g>
	</g>
	<g id="line_x5F_02_x5F_to_x5F_03">
		<g>
			<path fill="none" stroke="#B2CF79" stroke-width="3" stroke-miterlimit="10" d="M673.6,479.4c-0.5,0.4-1.1,0.7-1.7,1.1"/>
			<path fill="none" stroke="#B2CF79" stroke-width="3" stroke-miterlimit="10" stroke-dasharray="4.0306,4.0306" d="M668.4,482.4
				c-74,35.6-326.2-98-405.5,47.5"/>
			<path fill="none" stroke="#B2CF79" stroke-width="3" stroke-miterlimit="10" d="M261.9,531.7c-0.3,0.6-0.6,1.2-0.9,1.8"/>
		</g>
	</g>
	<g id="line_x5F_01_x5F_to_x5F_02">
		<g>
			<path fill="none" stroke="#B2CF79" stroke-width="3" stroke-miterlimit="10" d="M131.8,59c0.7,0,1.3,0,2,0"/>
			<path fill="none" stroke="#B2CF79" stroke-width="3" stroke-miterlimit="10" stroke-dasharray="4.0173,4.0173" d="M137.8,59.1
				c113.3,6,4,220.9,129.6,236.8c82.9,10.5,129-27.9,199.2-66.3c129.8-71,279.2,14.8,262.2,127.9"/>
			<path fill="none" stroke="#B2CF79" stroke-width="3" stroke-miterlimit="10" d="M728.5,359.5c-0.1,0.7-0.2,1.3-0.3,2"/>
		</g>
	</g>
</g>
<g id="icons">
	<path id="activities" fill="#B2CF79" d="M361.8,1043.6l-6.5-15.5c-0.5-1.3-2.1-1.9-3.4-1.3l-15.6,7.4c-1.1,0.4-1.6,1.5-1.5,2.5
		h-0.1l-9.2,3.8c-0.7,0.3-1.1,0.8-1.4,1.4c-0.3,0.6-0.3,1.3,0,1.9l0.3,0.8l-8.7,3.5c-0.6,0.2-1.2,0.7-1.4,1.3
		c-0.2,0.6-0.3,1.3,0,1.9l1.9,4.7c0.3,1,1.3,1.6,2.3,1.6c0.3,0,0.6,0,0.9-0.1l8.9-3.6l0,0l0.3,0.6c0.4,1,1.3,1.6,2.3,1.6
		c0.3,0,0.6-0.1,0.9-0.2l5-2.1v4.9h-1.2c-3,0-5.4,2.4-5.4,5.4v5.5h1.6l-8.4,15c-0.3,0.6-0.1,1.4,0.5,1.7c0.2,0.1,0.4,0.2,0.6,0.2
		c0.4,0,0.9-0.2,1.1-0.7l9-16.2h2.1v15.6c0,0.7,0.6,1.3,1.3,1.3s1.3-0.6,1.3-1.3v-15.5h2.2l9,16.2c0.2,0.5,0.7,0.7,1.1,0.7
		c0.2,0,0.4-0.1,0.6-0.2c0.6-0.3,0.8-1.1,0.5-1.7l-8.4-15h1.5v-5.5c0-3-2.4-5.4-5.4-5.4h-1.1v-5.9l1.7-0.7c0.1,0,0.2-0.1,0.3-0.1
		c0.5,0.5,1.1,0.7,1.7,0.7c0.3,0,0.6,0,0.9,0l16.4-5.8c0.7-0.3,1.2-0.8,1.5-1.4C362.1,1045,362.1,1044.2,361.8,1043.6z
		 M318.5,1055.2l-1.9-4.6l8.8-3.6l1.9,4.7L318.5,1055.2z M340.5,1061.4c1.5,0,2.8,1.2,2.8,2.8v3h-10.4v-3c0-1.5,1.2-2.8,2.8-2.8
		H340.5z M330.9,1053.6l-4.4-10.7l9.2-3.8l4.4,10.7L330.9,1053.6z M343,1050.3l-5.7-13.8l15.6-7.4l6.6,15.5L343,1050.3z"/>
	<path id="events" fill="#B2CF79" d="M223.5,605.9c-1.1,0-2.1,0.9-2.1,2.1c0,1.2,0.9,2.1,2.1,2.1c1.2,0,2.1-0.9,2.1-2.1
		C225.5,606.8,224.6,605.9,223.5,605.9z M223,607.9c0-0.3,0.2-0.5,0.5-0.5c0.3,0,0.5,0.2,0.5,0.5C224,608.5,223,608.5,223,607.9z
		 M225.8,595c-1.4,0-2.5,1.1-2.5,2.5s1.1,2.5,2.5,2.5s2.5-1.1,2.5-2.5S227.1,595,225.8,595z M225.8,598.5c-0.5,0-0.9-0.4-0.9-0.9
		s0.4-0.9,0.9-0.9c0.5,0,0.9,0.4,0.9,0.9S226.3,598.5,225.8,598.5z M213.1,603.2c0-1.6-1.3-3-3-3s-2.9,1.3-2.9,3c0,1.6,1.3,3,2.9,3
		S213.1,604.8,213.1,603.2z M210.1,604.5c-0.8,0-1.4-0.6-1.4-1.4s0.6-1.4,1.4-1.4s1.4,0.6,1.4,1.4S210.9,604.5,210.1,604.5z
		 M213.8,611.9c-1.4,0-2.5,1.1-2.5,2.5c0,1.4,1.1,2.5,2.5,2.5s2.5-1.1,2.5-2.5C216.3,613.1,215.2,611.9,213.8,611.9z M213.8,615.4
		c-0.5,0-0.9-0.4-0.9-0.9c0-0.5,0.4-0.9,0.9-0.9s0.9,0.4,0.9,0.9C214.8,615,214.3,615.4,213.8,615.4z M244.9,552.3
		c-0.2-0.8-0.9-1.3-1.8-1.1l-14.9,3.2c-0.6,0.1-1,0.5-1.1,1.1l-2.7,11.3c-2-0.3-4-0.4-6-0.4c-6,0-12.1,1.1-17.7,3.3c0,0-0.1,0-0.1,0
		c-0.1,0-0.2,0.1-0.3,0.2c-0.1,0-0.1,0.1-0.2,0.1c-0.1,0.1-0.1,0.1-0.2,0.2c0,0.1-0.1,0.1-0.1,0.2c0,0.1-0.1,0.1-0.1,0.2
		c0,0,0,0.1,0,0.1c0,0,0,0.1,0,0.1c0,0.1,0,0.3,0,0.4c0,0,0,0,0,0l4.2,46.3c0.1,0.6,0.4,1,0.9,1.2c4.3,1.6,8.9,2.5,13.4,2.5
		c4.6,0,9-0.8,13-2.5c0.5-0.2,0.9-0.7,0.9-1.2l4.2-46.3c0,0,0,0,0,0c0-0.1,0-0.3,0-0.4c0,0,0,0,0-0.1c0-0.1,0-0.1,0-0.2
		c0-0.1-0.1-0.1-0.1-0.2c0,0,0,0,0-0.1c-0.1-0.1-0.2-0.2-0.3-0.3c0,0,0,0-0.1,0c-0.1-0.1-0.2-0.2-0.4-0.2c0,0,0,0,0,0
		c-2.7-1.1-5.4-1.9-8.3-2.4l2.5-10.1l14-3C244.5,553.9,245,553.1,244.9,552.3z M223.7,569.6l-0.7,2.8c-5.6,0.6-11.5,0.1-17.1-1.4
		c4.1-1.1,8.3-1.7,12.4-1.7C220.2,569.2,221.9,569.4,223.7,569.6z M207.8,587.7c3.9-1,7.8-1.4,11.7-1.3l-0.6,2.7
		C215.2,589.1,211.5,588.7,207.8,587.7z M222.6,586.6c2,0.2,4,0.6,6,1.1c-2.1,0.6-4.3,1-6.5,1.2L222.6,586.6z M232.2,585.7
		c-2.9-1-5.8-1.7-8.9-2l2.1-8.6c2.7-0.4,5.4-1,7.9-1.9L232.2,585.7z M220.3,583.5c-5.4-0.2-11,0.5-16.3,2.3l-1.2-12.7
		c5.1,1.7,10.3,2.5,15.5,2.5c1.3,0,2.6-0.1,3.9-0.2L220.3,583.5z M229.4,616.2c-6.9,2.6-15.2,2.6-22.6,0l-2.4-26.4
		c4.5,1.5,9.2,2.2,13.9,2.2l-3.8,15.6c-0.2,0.8,0.3,1.6,1.1,1.8c0.1,0,0.2,0,0.4,0c0.7,0,1.3-0.5,1.4-1.1l4-16.4
		c3.6-0.2,7.2-0.9,10.5-2.1L229.4,616.2z M230.5,570.9c-1.4,0.4-2.9,0.7-4.3,1l0.5-1.9C227.9,570.3,229.2,570.6,230.5,570.9z"/>
	<path id="buddies" fill="#B2CF79" d="M697.5,419.9c0.7,0,1.3-0.6,1.4-1.3v-2.3c0-2.1-1.3-3.9-3.2-4.6l-5.2-1.8v-2
		c1.7-1.6,2.8-4,2.8-6.7c0-4.7-3.3-8.5-7.3-8.5s-7.3,3.8-7.3,8.5c0,2.9,1.3,5.5,3.2,7v1.7l-5.2,1.8c-1.9,0.7-3.2,2.6-3.2,4.6v2.3
		c0,0.7,0.6,1.3,1.3,1.3H697.5z M686,395.3c2.1,0,3.9,1.8,4.5,4.2c-0.9,0-1.7-0.4-2.5-1.8c-0.2-0.4-0.7-0.6-1.1-0.6
		c-0.5,0-0.9,0.3-1.1,0.7c-0.4,0.7-2,1.6-3.4,1.6c-0.3,0-0.6,0-0.8-0.1C682.2,397,683.9,395.3,686,395.3z M681.3,401.9
		c0.3,0.1,0.7,0.1,1.1,0.1c1.4,0,3.2-0.5,4.4-1.5c1,1.1,2.2,1.6,3.6,1.6c0.1,0,0.2,0,0.3,0c-0.3,2.8-2.3,5.1-4.7,5.1
		C683.6,407.1,681.6,404.8,681.3,401.9z M676.1,416.3c0-1,0.6-1.9,1.5-2.2l6-2.1c0.5-0.2,0.8-0.7,0.8-1.2v-1.3
		c0.5,0.1,1.1,0.2,1.6,0.2c0.7,0,1.4-0.1,2-0.3v1.4c0,0.5,0.3,1,0.8,1.2l6,2.1c0.9,0.3,1.5,1.2,1.5,2.2v1h-20.2V416.3L676.1,416.3z
		 M729.6,441.7l-5.2-1.8v-1.9c1.7-1.6,2.8-4,2.8-6.7c0-4.7-3.3-8.5-7.3-8.5c-4,0-7.3,3.8-7.3,8.5c0,2.9,1.3,5.5,3.2,7v1.6l-5.2,1.8
		c-1.9,0.7-3.2,2.6-3.2,4.6v2.3c0,0.7,0.6,1.3,1.3,1.3h22.7c0.7,0,1.3-0.5,1.4-1.3v-2.3C732.8,444.2,731.5,442.4,729.6,441.7z
		 M719.8,425.3c2.1,0,3.9,1.8,4.5,4.2c-0.9,0-1.7-0.4-2.5-1.8c-0.2-0.4-0.7-0.6-1.1-0.6c-0.5,0-0.9,0.3-1.1,0.7
		c-0.4,0.7-2,1.6-3.4,1.6c-0.3,0-0.6,0-0.8-0.1C716,427.1,717.7,425.3,719.8,425.3z M715.1,431.9c0.3,0.1,0.7,0.1,1.1,0.1
		c1.4,0,3.2-0.5,4.4-1.5c0.9,1.1,2.1,1.6,3.6,1.6c0.1,0,0.2,0,0.3,0c-0.3,2.8-2.3,5.1-4.7,5.1C717.4,437.1,715.4,434.8,715.1,431.9z
		 M730.2,447.3h-20.2v-1c0-1,0.6-1.9,1.5-2.2l6-2.1c0.5-0.2,0.8-0.7,0.8-1.2v-1.2c0.5,0.1,1.1,0.2,1.6,0.2c0.7,0,1.4-0.1,2-0.3v1.3
		c0,0.5,0.3,1,0.8,1.2l6,2.1c0.9,0.3,1.5,1.2,1.5,2.2V447.3L730.2,447.3z M699.8,441.8c-0.2-0.6-1-1-1.6-0.7c-0.6,0.2-1,0.9-0.7,1.6
		l1.1,2.7c-2.1-0.1-4-0.5-5.9-1.1c-2.2-0.8-4.3-1.8-6.2-3.2c-1.9-1.4-3.5-3-4.9-4.9s-2.5-4-3.2-6.2c-0.7-2.2-1.1-4.6-1.1-6.9
		c0-0.7-0.6-1.3-1.3-1.3c-0.7,0-1.3,0.6-1.3,1.3c0,2.7,0.4,5.2,1.2,7.7s2,4.8,3.5,6.9c1.5,2.1,3.4,4,5.5,5.5
		c2.1,1.5,4.4,2.7,6.9,3.5c2,0.6,4.1,1,6.2,1.2l-3.2,1.2c-0.6,0.2-1,0.9-0.7,1.6c0.2,0.5,0.7,0.8,1.2,0.8c0.1,0,0.3,0,0.3-0.1
		l5.8-2.2c0.6-0.2,1-0.9,0.7-1.6L699.8,441.8z M703.8,397.2c2.1,0.1,4.2,0.5,6.1,1.1c2.3,0.7,4.4,1.8,6.3,3.2c1.9,1.4,3.6,3.1,5,5
		s2.5,4.1,3.2,6.3c0.7,2.3,1.1,4.6,1.1,7c0,0.7,0.6,1.3,1.3,1.3c0.7,0,1.3-0.5,1.1-1.5c0-2.6-0.4-5.2-1.2-7.7c-0.8-2.5-2-4.9-3.6-7
		c-1.5-2.1-3.4-4-5.5-5.5c-2.2-1.6-4.5-2.8-7-3.6c-1.6-0.5-3.3-0.9-5-1.1l2.2-0.8c0.6-0.2,1-0.9,0.7-1.6c-0.2-0.6-1-1-1.6-0.7
		l-5.8,2.3c-0.6,0.2-1,0.9-0.7,1.6l2.3,5.8c0.2,0.5,0.7,0.8,1.2,0.8c0.1,0,0.3,0,0.4-0.2c0.6-0.2,1-0.9,0.7-1.6L703.8,397.2z"/>
	<path id="questionnaire" fill="#B2CF79" d="M74.3,50c0,0.7-0.6,1.5-1.3,1.5H59.3c-0.7,0-1.3-0.8-1.3-1.5s0.6-1.5,1.3-1.5h13.7
		C73.8,48.5,74.3,49.3,74.3,50z M73.1,56.5H59.3c-0.7,0-1.3,0.8-1.3,1.5s0.6,1.5,1.3,1.5h13.7c0.7,0,1.3-0.8,1.3-1.5
		S73.8,56.5,73.1,56.5z M73.1,63.5H59.3c-0.7,0-1.3,0.8-1.3,1.5s0.6,1.5,1.3,1.5h13.7c0.7,0,1.3-0.8,1.3-1.5S73.8,63.5,73.1,63.5z
		 M73.1,71.5H59.3c-0.7,0-1.3,0.3-1.3,1c0,0.7,0.6,1,1.3,1h13.7c0.7,0,1.3-0.3,1.3-1C74.3,71.8,73.8,71.5,73.1,71.5z M96.8,45.3
		c0,0.7-0.6,1.3-1.3,1.3H84.6v41.2c0,4.8-4.2,8.8-9.1,8.8h-30c-4.8,0-8.8-4.2-8.8-9c0-4.8,3.9-9,8.8-9h4.1V45.3
		c0-4.8,3.6-8.7,8.4-8.7h30c0.1,0,0.2,0,0.3,0.1c0.3,0,0.6-0.1,0.9-0.1C93.7,36.5,96.8,40.1,96.8,45.3z M69.4,93.5
		c-1.6-1-2.6-3.6-2.6-6c0-2.4,1-4,2.6-6H45.6c-3.4,0-6.2,2.6-6.2,6c0,3.4,2.8,6,6.2,6H69.4z M81.6,44c0-1.9,0.9-3.5,2.1-4.5H58.1
		c-3.4,0-6.4,2.3-6.4,5.7v33.3h23.9c0.7,0,1.3,0.8,1.3,1.5c0,0.7-0.6,1.5-1.3,1.5c-3.4,0-6.2,2.8-6.2,6.2c0,3.4,2.8,6.2,6.2,6.2
		s6.1-2.8,6.1-6.2V44z M94.2,43.5c-0.4-3-2.3-5-4.9-5c-2.7,0-5,3-5,5H94.2z"/>
</g>
</svg>
